<svg width="68" height="45" viewBox="0 0 68 45" fill="none" xmlns="http://www.w3.org/2000/svg">
<path d="M36.7295 9.58008C44.246 9.57711 51.1062 15.1402 51.1064 23.1875C51.1064 30.5471 44.2461 36.5978 36.7295 36.5625H30.2598C22.6537 36.5976 16.3926 30.5485 16.3926 23.1875C16.3928 15.1418 22.6539 9.57729 30.2598 9.58008H36.7295ZM30.29 10.6953C23.339 10.6978 17.7074 16.2251 17.7051 23.0469C17.7075 29.8679 23.3391 35.395 30.29 35.3975C37.242 35.3952 42.8761 29.868 42.877 23.0469C42.8762 16.2249 37.2428 10.6976 30.29 10.6953ZM33.1455 15.7402C34.6572 16.3148 35.9548 17.3202 36.8691 18.624C37.7835 19.9278 38.2716 21.4698 38.2695 23.0479C38.2712 24.6256 37.7833 26.1671 36.8691 27.4707C35.9549 28.7744 34.6569 29.7796 33.1455 30.3545V15.7402ZM27.4346 30.3516C25.924 29.7765 24.6266 28.772 23.7129 27.4688C22.7992 26.1655 22.3118 24.6241 22.3135 23.0469C22.312 21.4696 22.8002 19.9284 23.7139 18.625C24.6275 17.3217 25.9242 16.3166 27.4346 15.7412V30.3516Z" fill="#C1C9E5"/>
</svg>
