<svg width="45" height="45" viewBox="0 0 45 45" fill="none" xmlns="http://www.w3.org/2000/svg">
<path d="M32.989 11H37.0498L28.5897 19.5541C25.5253 22.6561 20.5621 22.6561 17.4977 19.5541L9.0376 11H13.0984L19.5281 17.5049C21.4269 19.4413 24.5665 19.4601 26.5029 17.5613C26.5217 17.5425 26.5405 17.5237 26.5593 17.5049L32.989 11ZM13.0608 34.7822H9L17.5165 26.1717C20.5809 23.0697 25.5441 23.0697 28.6085 26.1717L37.125 34.7822H33.0642L26.5969 28.2397C24.6981 26.3033 21.5585 26.2845 19.6221 28.1833C19.6033 28.2021 19.5845 28.2209 19.5657 28.2397L13.0608 34.7822Z" fill="#C1C9E5"/>
</svg>
