<svg width="45" height="45" viewBox="0 0 45 45" fill="none" xmlns="http://www.w3.org/2000/svg">
<path d="M23.0161 28.1934C22.9287 28.2231 22.8789 28.1471 22.8194 28.1121C19.9056 26.3923 16.9949 24.6714 14.0874 22.9493C14.0593 22.9351 14.03 22.9231 14 22.9135V22.875L14.0516 22.8453C14.1248 22.826 14.1969 22.8027 14.2675 22.7753L21.1341 19.6511C21.746 19.3722 22.3579 19.0977 22.9698 18.8215H23.0135C23.0135 18.9089 23.0135 18.9867 23.0135 19.0698C23.0158 22.1113 23.0167 25.1525 23.0161 28.1934Z" fill="#C1C9E5"/>
<path d="M23.0205 18.8236H22.9768C22.9768 18.7362 22.9855 18.6488 22.9855 18.557C22.9855 15.1408 22.9855 11.7242 22.9855 8.30743C22.9755 8.21968 22.9814 8.13083 23.003 8.04519H23.0213C23.3806 8.5758 23.6936 9.13527 24.024 9.68337C26.6418 14.0256 29.2582 18.3673 31.8731 22.7084C31.8985 22.7512 31.9186 22.7958 31.9413 22.843C31.8673 22.8272 31.7945 22.8059 31.7236 22.7792C31.2437 22.5624 30.7621 22.3421 30.2865 22.121C29.5417 21.78 28.7967 21.4397 28.0513 21.0999L24.4602 19.4731C23.9821 19.2528 23.5013 19.0387 23.0205 18.8236Z" fill="#C1C9E5"/>
<path d="M23.0059 8.04067C22.9843 8.12631 22.9783 8.21516 22.9884 8.30292C22.9884 11.7191 22.9884 15.1357 22.9884 18.5525C22.9884 18.6399 22.9831 18.7273 22.9796 18.8191C22.3677 19.0953 21.7558 19.3698 21.1439 19.6487L14.2773 22.7729C14.2067 22.8003 14.1347 22.8236 14.0614 22.8429C14.2599 22.4303 14.5177 22.0561 14.7529 21.661C17.4774 17.1323 20.2039 12.6044 22.9324 8.07738C22.9505 8.05231 22.97 8.02837 22.991 8.0057L23.0059 8.04067Z" fill="#C1C9E5"/>
<path d="M23.0205 18.8236C23.5013 19.0387 23.9822 19.2529 24.4621 19.4697L28.0532 21.0965C28.7991 21.4357 29.5442 21.776 30.2884 22.1175C30.7675 22.337 31.25 22.559 31.7255 22.7758C31.7964 22.8024 31.8692 22.8238 31.9432 22.8396C32.0306 22.9489 31.9013 22.9532 31.8619 22.9768C31.1163 23.4227 30.3671 23.8624 29.6197 24.3047C27.4745 25.574 25.3299 26.843 23.1858 28.1117C23.1316 28.1431 23.0729 28.1663 23.0161 28.1934C23.0161 25.1531 23.0162 22.1129 23.0162 19.072C23.0171 18.9889 23.0196 18.9067 23.0205 18.8236Z" fill="#C1C9E5"/>
<path d="M22.9854 29.9205L28.6019 26.61C29.6742 25.9771 30.746 25.3436 31.8171 24.7096L31.9141 24.6563C31.9237 24.7437 31.8634 24.79 31.8267 24.8407C29.3791 28.2913 26.9314 31.7408 24.4837 35.189C24.0204 35.8429 23.558 36.5003 23.0903 37.1489C23.0658 37.183 23.0282 37.343 22.9531 37.1734C23.0125 37.1227 22.9863 37.0545 22.9863 36.9986C22.9869 34.6383 22.9866 32.279 22.9854 29.9205Z" fill="#C1C9E5"/>
<path d="M22.9854 29.9205C22.9854 32.279 22.9849 34.6373 22.9849 36.9946C22.9849 37.055 23.0112 37.1231 22.9517 37.1695C22.8267 37.0943 22.7725 36.9597 22.6895 36.8486C19.8513 32.8508 17.0147 28.8524 14.1795 24.8534C14.1436 24.8027 14.1104 24.7485 14.0737 24.6925C14.1471 24.6497 14.1865 24.7083 14.2293 24.7336C17.0995 26.4283 19.9691 28.1245 22.8381 29.8221C22.8914 29.8553 22.9373 29.889 22.9854 29.9205Z" fill="#C1C9E5"/>
<path d="M23.0059 8.04067L22.9855 8.00828C23.024 7.9838 23.0188 8.01964 23.0249 8.038L23.0059 8.04067Z" fill="#C1C9E5"/>
</svg>
