<svg width="45" height="45" viewBox="0 0 45 45" fill="none" xmlns="http://www.w3.org/2000/svg">
<path fill-rule="evenodd" clip-rule="evenodd" d="M14.3703 11H31.218C31.6199 11 31.9913 11.2083 32.1918 11.5463L37.1003 19.8203C37.3548 20.2494 37.2792 20.791 36.9161 21.1389L23.4055 34.0869C22.9679 34.5063 22.2638 34.5063 21.8262 34.0869L8.33388 21.1564C7.96236 20.8004 7.8928 20.243 8.16599 19.8113L13.4127 11.5197C13.617 11.1968 13.9796 11 14.3703 11ZM29.0426 14.6941V17.0157H24.2434V18.6253C27.614 18.7973 30.1429 19.5038 30.1617 20.3506L30.1616 22.1158C30.1428 22.9626 27.614 23.6691 24.2434 23.8411V27.7913H21.0566V23.8411C17.686 23.6691 15.1571 22.9626 15.1383 22.1158L15.1385 20.3506C15.1572 19.5038 17.686 18.7973 21.0566 18.6253V17.0157H16.2574V14.6941H29.0426ZM22.65 22.6283C26.2471 22.6283 29.2537 22.031 29.9894 21.2332C29.3655 20.5567 27.1086 20.0243 24.2434 19.8781V21.5633C23.7298 21.5895 23.1967 21.6033 22.65 21.6033C22.1033 21.6033 21.5702 21.5895 21.0566 21.5633V19.8781C18.1914 20.0243 15.9345 20.5567 15.3106 21.2332C16.0464 22.031 19.0529 22.6283 22.65 22.6283Z" fill="#C1C9E5"/>
</svg>
