<svg width="45" height="45" viewBox="0 0 45 45" fill="none" xmlns="http://www.w3.org/2000/svg">
<path d="M33.3382 20.3162C33.7426 17.3162 31.4632 15.75 28.3382 14.6912L29.3088 10.6324L26.8382 10.0368L25.8971 14.0074C25.2426 13.853 24.5809 13.6985 23.9265 13.5662L24.8676 9.59559L22.3676 9L21.3971 13.0588C20.8676 12.9338 20.3309 12.8382 19.8015 12.7132L16.3971 11.8971L15.7721 14.5221C15.7721 14.5221 17.6176 14.9265 17.5515 14.9632C18.5515 15.2132 18.7426 15.8677 18.7059 16.3677L17.6103 20.9927C17.6765 21.0221 17.7647 21.0221 17.8603 21.0883C17.7647 21.0588 17.7059 21.0588 17.6103 21.0294L16.1103 27.5C15.9853 27.8089 15.6691 28.25 14.9853 28.0956C15.0147 28.125 13.1691 27.6544 13.1691 27.6544L12 30.5L15.2206 31.25C15.8162 31.4045 16.4118 31.5295 16.9706 31.6912L16 35.7868L18.4706 36.3824L19.4412 32.3236C20.1324 32.5074 20.7868 32.6692 21.4118 32.8236L20.4412 36.853L22.9118 37.4486L23.8824 33.353C28.1029 34.103 31.2574 33.7574 32.5368 29.9118C33.5662 26.8456 32.4412 25.0956 30.1912 23.9412C31.8382 23.5662 33.0294 22.5 33.3382 20.3162ZM27.7794 28.2794C27.0588 31.3456 21.875 29.75 20.2132 29.3456L21.4926 23.9044C23.1838 24.3162 28.5294 25.0662 27.7794 28.2794ZM28.4632 20.3162C27.8088 23.0956 23.4926 21.7574 22.0882 21.4118L23.2794 16.478C24.6544 16.8162 29.1544 17.4118 28.4632 20.3162Z" fill="#C1C9E5"/>
</svg>
