<svg width="45" height="45" viewBox="0 0 45 45" fill="none" xmlns="http://www.w3.org/2000/svg">
<path d="M30.4108 14.855C29.2284 12.1665 26.5047 11.5964 23.1687 12.1524L22.0989 8L19.5723 8.65453L20.628 12.7929C19.9664 12.9618 19.2837 13.1026 18.6081 13.2926L17.5524 9.17535L15.0257 9.82988L16.0955 13.9823C15.5536 14.1372 11 15.3055 11 15.3055L11.6968 18.0081C11.6968 18.0081 13.5548 17.4872 13.5337 17.5295C14.5612 17.262 15.0468 17.7758 15.2721 18.2614L18.2139 29.6419C18.2491 29.9727 18.1928 30.5357 17.482 30.7258C17.5242 30.7469 15.6451 31.1973 15.6451 31.1973L15.9196 34.3503C15.9196 34.3503 20.4309 33.1961 21.0221 33.0483L22.106 37.25L24.6326 36.5955L23.5488 32.3656C24.2455 32.2037 24.9212 32.0348 25.5757 31.8659L26.6525 36.0747L29.1791 35.4201L28.0953 31.2255C31.9873 30.2824 34.7321 27.8261 34.1691 24.0748C33.8102 21.8156 31.3398 19.9576 29.2847 19.7465C30.5516 18.6274 31.192 16.9946 30.4108 14.855ZM29.1932 24.7575C29.6929 28.4736 24.5341 28.9311 22.8238 29.3745L21.3388 23.8144C23.0561 23.371 28.3487 21.4848 29.1932 24.7575ZM26.0824 17.1917C26.6173 20.4925 22.1975 20.8796 20.7758 21.2455L19.4245 16.1993C20.8532 15.8404 24.9986 14.1301 26.0824 17.1917Z" fill="#C1C9E5"/>
</svg>
