<svg width="68" height="45" viewBox="0 0 68 45" fill="none" xmlns="http://www.w3.org/2000/svg">
<path d="M27.7256 18.0208C28.4589 18.0208 29.2972 18.1219 29.9258 18.5247V20.5393C29.4019 19.935 28.5637 19.5325 27.7256 19.5325C26.0495 19.6334 24.6875 21.043 24.792 22.6546V22.8567C24.7922 24.4684 26.1548 25.677 27.8311 25.677C28.6689 25.6769 29.402 25.2743 29.9258 24.6702V26.6848C29.1925 26.9869 28.4591 27.1878 27.6211 27.1878C25.0017 27.1877 22.9062 25.0724 22.9062 22.554C22.9064 19.935 25.0017 17.8195 27.7256 18.0208ZM44.1768 24.0637L46.6914 18.0198H48.5771L44.7002 27.1868H43.7578L39.8809 18.0198H41.7666L44.1768 24.0637ZM19.3438 17.8186C20.2867 17.8186 21.2295 18.222 21.9629 18.8264L21.0205 20.0354C20.6015 19.6326 20.0774 19.3295 19.5537 19.3294C18.9251 19.2286 18.4007 19.7327 18.2959 20.3372C18.2959 20.8409 18.6105 21.0426 19.6582 21.4456C21.7535 22.2514 22.2771 22.8559 22.3818 24.0647V24.3665C22.2771 25.9782 20.9155 27.1868 19.2393 27.0862C17.982 27.0862 16.7244 26.4823 16.0957 25.3743L17.248 24.2659C17.5623 24.9709 18.2958 25.4747 19.1338 25.4749H19.2393C19.8678 25.4747 20.4961 24.8703 20.4961 24.1653C20.4961 23.7625 20.2868 23.4605 19.9727 23.259C19.5536 23.0576 19.1339 22.8559 18.7148 22.7551C17.0386 22.2515 16.5146 21.546 16.5146 20.3372V20.2366C16.6194 18.8263 17.8769 17.7179 19.3438 17.8186ZM8.44824 18.0198C10.9627 18.1207 12.9534 20.1354 12.8486 22.553C12.8485 23.8624 12.2195 25.0712 11.1719 25.9778C10.2289 26.6829 9.07627 27.0863 7.92383 26.9856H5.30469V18.0198H8.44824ZM58.2168 18.0198C60.3123 18.0198 61.4648 18.9264 61.4648 20.6389C61.5694 21.9484 60.6263 23.0566 59.3691 23.2581L62.1982 26.9856H59.998L57.5889 23.3587H57.3789V26.9856H55.5977V18.0198H58.2168ZM15.3633 26.9846H13.582V18.0198H15.3633V26.9846ZM54.4434 19.5305H51.1953V21.5452H54.3389V23.0559H51.1953V25.4739H54.4434V26.9846H49.4141V18.0198H54.4434V19.5305ZM10.0195 20.2366C9.39088 19.7329 8.44756 19.4308 7.60938 19.5315H7.08594V25.4758H7.60938C8.44748 25.5766 9.39089 25.2734 10.0195 24.7698C10.6479 24.1655 10.9627 23.3597 10.9629 22.4534C10.9629 21.6475 10.6481 20.8411 10.0195 20.2366ZM57.3789 22.1506H57.9023C59.0547 22.1506 59.579 21.646 59.5791 20.7395C59.579 19.9337 59.0547 19.4299 57.9023 19.4299H57.3789V22.1506Z" fill="#C1C9E5"/>
<path fill-rule="evenodd" clip-rule="evenodd" d="M35.2708 17.8125C32.6514 17.8125 30.4512 19.8273 30.4512 22.4465C30.4512 24.9649 32.5467 27.0804 35.2708 27.1811C37.995 27.2819 40.0905 25.1664 40.1953 22.5472C40.0905 19.928 37.995 17.8125 35.2708 17.8125V17.8125Z" fill="#C1C9E5"/>
</svg>
