<svg width="45" height="45" viewBox="0 0 45 45" fill="none" xmlns="http://www.w3.org/2000/svg">
<path d="M20.9164 32.1766L23.1559 24.6248L26.6453 23.6353L27.3745 21.1353L23.9371 22.177L27.5828 9.78159V9.58369C27.5801 9.50433 27.5618 9.42629 27.5289 9.35402C27.4961 9.28174 27.4493 9.21666 27.3912 9.16248C27.3332 9.10831 27.265 9.06611 27.1907 9.03829C27.1163 9.01048 27.0372 8.99759 26.9578 9.00037H22.3226C22.1471 8.99496 21.9749 9.04843 21.8333 9.15225C21.6917 9.25607 21.5889 9.40428 21.5414 9.57327L17.2186 24.2602L13.7812 25.3019L13 27.6976L16.4374 26.656L13.3646 37.1243H31.6972C31.8731 37.1316 32.0463 37.0789 32.1882 36.9748C32.3302 36.8707 32.4325 36.7214 32.4785 36.5514L33.5201 32.9578V32.7599C33.5174 32.6806 33.4991 32.6025 33.4662 32.5302C33.4333 32.458 33.3865 32.3929 33.3285 32.3387C33.2705 32.2845 33.2023 32.2423 33.1279 32.2145C33.0536 32.1867 32.9745 32.1738 32.8951 32.1766H20.9164Z" fill="#C1C9E5"/>
</svg>
