<svg width="45" height="45" viewBox="0 0 45 45" fill="none" xmlns="http://www.w3.org/2000/svg">
<path d="M9.79585 18.3436C7.07695 25.5625 10.827 33.7187 18.1395 36.3436C18.4208 36.5312 18.702 36.9061 18.702 37.1873V38.5C18.702 38.6874 18.702 38.7812 18.6082 38.8748C18.5146 39.2499 18.1395 39.4373 17.7644 39.2499C12.5145 37.5624 8.4832 33.5311 6.7957 28.2812C3.9832 19.375 8.85827 9.9061 17.7644 7.0936C17.8583 7 18.0457 7 18.1395 7C18.5146 7.0936 18.702 7.37485 18.702 7.74992V9.06235C18.702 9.53125 18.5146 9.8125 18.1395 9.99992C14.2958 11.4062 11.2021 14.4061 9.79585 18.3436Z" fill="#C1C9E5"/>
<path d="M27.2333 7.46867C27.3269 7.0936 27.702 6.90617 28.0771 7.0936C33.2332 8.7811 37.3583 12.8124 39.0458 18.1562C41.8583 27.0623 36.9833 36.5312 28.0771 39.3438C27.9833 39.4373 27.7958 39.4373 27.702 39.4373C27.3269 39.3437 27.1395 39.0625 27.1395 38.6874V37.375C27.1395 36.9061 27.3269 36.6248 27.702 36.4374C31.5457 35.0312 34.6394 32.0312 36.0457 28.0938C38.7646 20.8748 35.0145 12.7186 27.702 10.0938C27.4208 9.9061 27.1395 9.53125 27.1395 9.15617V7.84375C27.1395 7.6561 27.1395 7.5625 27.2333 7.46867Z" fill="#C1C9E5"/>
<path d="M23.2019 21.6251C27.1394 22.0937 29.1082 23.2187 29.1082 26.4999C29.1082 29.0312 27.2333 30.9999 24.4208 31.4688V33.7188C24.327 34.1875 24.0457 34.4687 23.6706 34.4687H22.2644C21.7957 34.3749 21.5144 34.0937 21.5144 33.7188V31.4688C18.4207 30.9999 16.9206 29.3124 16.5458 26.9688V26.875C16.5458 26.4999 16.827 26.2187 17.2019 26.2187H18.7958C19.077 26.2187 19.3583 26.4063 19.4519 26.7812C19.7331 28.1874 20.5769 29.2188 23.0145 29.2188C24.7956 29.2188 26.1083 28.1876 26.1083 26.6876C26.1083 25.1875 25.2645 24.625 22.6394 24.1563C18.702 23.6874 16.827 22.4688 16.827 19.3751C16.827 17.0312 18.6081 15.1563 21.4206 14.7812V12.6251C21.5144 12.1562 21.7957 11.8749 22.1708 11.8749H23.577C24.0457 11.9687 24.3269 12.25 24.3269 12.6251V14.8751C26.4831 15.0625 28.1706 16.6562 28.5457 18.7187V18.8126C28.5457 19.1874 28.2644 19.4687 27.8894 19.4687H26.3895C26.1083 19.4687 25.827 19.2812 25.7332 19C25.2645 17.5937 24.3269 17.0312 22.6394 17.0312C20.7645 17.0312 19.827 17.8748 19.827 19.1874C19.827 20.5001 20.3895 21.25 23.2019 21.6251Z" fill="#C1C9E5"/>
</svg>
